<svg xmlns="http://www.w3.org/2000/svg" viewBox="0 0 152 132" width="152" height="132" fill="none"><defs><linearGradient id="brand" x1="0" y1="0" x2="152" y2="132" gradientUnits="userSpaceOnUse"><stop offset="0" stop-color="#5C5CEB"/><stop offset="1" stop-color="#9152E3"/></linearGradient></defs><g transform="translate(44.0,0) scale(1)"><g fill="none" stroke="url(#brand)" stroke-width="7" stroke-linecap="round" stroke-linejoin="round"><path d="M17 21H31"/><path d="M11 32H34"/><path d="M17 43H31"/><path d="M37 16 L53 32 L37 48"/></g><g fill="url(#brand)"><circle cx="7" cy="21" r="3"/><circle cx="4" cy="32" r="3"/><circle cx="7" cy="43" r="3"/></g></g><g transform="translate(-0.05633802816902289,118) scale(0.04507042253521127,-0.04507042253521127)"><path fill="#161822" d="M79.999267578125 0.0V710.0H354.6004638671875Q479.600830078125 710.0 549.8010864257812 649.7998046875Q620.0013427734375 589.599609375 620.0013427734375 483.79931640625Q620.0013427734375 413.399169921875 588.2012329101562 361.8990478515625Q556.401123046875 310.39892578125 497.00091552734375 282.99884033203125Q437.6007080078125 255.5987548828125 354.6004638671875 255.5987548828125H210.001953125V0.0ZM210.001953125 368.800537109375H348.60009765625Q414.999267578125 368.800537109375 450.49896240234375 397.80023193359375Q485.9986572265625 426.7999267578125 485.9986572265625 483.79931640625Q485.9986572265625 539.5987548828125 450.698974609375 568.198486328125Q415.3992919921875 596.7982177734375 348.60009765625 596.7982177734375H210.001953125ZM897.99951171875 -12.0Q816.599365234375 -12.0 769.4993896484375 41.5Q722.3994140625 95.0 722.3994140625 190.2000732421875V534.000244140625H850.402099609375V221.6005859375Q850.402099609375 154.6011962890625 872.5017700195312 123.301513671875Q894.6014404296875 92.0018310546875 940.80078125 92.0018310546875Q992.60009765625 92.0018310546875 1021.399658203125 126.50146484375Q1050.19921875 161.0010986328125 1050.19921875 226.80078125V534.000244140625H1178.201904296875V0.0H1060.599609375L1057.7994384765625 146.6009521484375L1074.399658203125 141.60107421875Q1061.599853515625 66.200439453125 1016.599853515625 27.1002197265625Q971.599853515625 -12.0 897.99951171875 -12.0ZM1594.0020751953125 -12.0Q1538.2020263671875 -12.0 1496.402099609375 12.0999755859375Q1454.6021728515625 36.199951171875 1431.6021728515625 79.199951171875L1428.6021728515625 0.0H1307.3994140625V710.0H1435.402099609375V458.400146484375Q1456.6021728515625 494.600341796875 1497.8021240234375 520.30029296875Q1539.0020751953125 546.000244140625 1594.0020751953125 546.000244140625Q1662.802001953125 546.000244140625 1713.2019653320312 511.6002197265625Q1763.6019287109375 477.2001953125 1791.201904296875 414.60015869140625Q1818.8018798828125 352.0001220703125 1818.8018798828125 267.0001220703125Q1818.8018798828125 182.0001220703125 1791.201904296875 119.40008544921875Q1763.6019287109375 56.800048828125 1713.2019653320312 22.4000244140625Q1662.802001953125 -12.0 1594.0020751953125 -12.0ZM1564.6005859375 91.6014404296875Q1619.9998779296875 91.6014404296875 1653.1995239257812 138.2010498046875Q1686.399169921875 184.8006591796875 1686.399169921875 267.0001220703125Q1686.399169921875 349.799560546875 1653.5995483398438 396.09918212890625Q1620.7999267578125 442.3988037109375 1565.800537109375 442.3988037109375Q1524.801025390625 442.3988037109375 1495.4013671875 421.698974609375Q1466.001708984375 400.9991455078125 1450.701904296875 361.7994384765625Q1435.402099609375 322.5997314453125 1435.402099609375 267.0001220703125Q1435.402099609375 213.00048828125 1450.701904296875 173.50079345703125Q1466.001708984375 134.0010986328125 1495.1013793945312 112.80126953125Q1524.2010498046875 91.6014404296875 1564.6005859375 91.6014404296875ZM2044.40087890625 0.0Q1985.60009765625 0.0 1950.999755859375 30.0003662109375Q1916.3994140625 60.000732421875 1916.3994140625 126.401611328125V710.0H2044.402099609375V139.4019775390625Q2044.402099609375 118.6016845703125 2054.7022094726562 108.901611328125Q2065.0023193359375 99.2015380859375 2084.2025146484375 99.2015380859375H2123.402099609375V0.0ZM2201.3994140625 0.0V534.000244140625H2329.402099609375V0.0ZM2198.9993896484375 605.3995361328125V718.6004638671875H2331.8021240234375V605.3995361328125Z"/><path fill="url(#brand)" d="M2407.199951171875 0.0 2663.199951171875 710.0H2822.0025634765625L3078.0025634765625 0.0H2941.5999755859375L2883.000732421875 167.9979248046875H2601.8017578125L2543.2025146484375 0.0ZM2640.0023193359375 279.1995849609375H2845.2001953125L2742.80126953125 578.5965576171875ZM3164.999267578125 0.0V710.0H3295.001953125V0.0Z"/></g></svg>
